<?xml version="1.0" encoding="iso-8859-1"?>
<!-- Generator: Adobe Illustrator 19.1.0, SVG Export Plug-In . SVG Version: 6.00 Build 0)  -->
<svg version="1.1" id="Capa_1" xmlns="http://www.w3.org/2000/svg" xmlns:xlink="http://www.w3.org/1999/xlink" x="0px" y="0px"
	 viewBox="0 0 488.801 488.801" style="enable-background:new 0 0 488.801 488.801;" xml:space="preserve">
<g>
	<g>
		<g>
			<path style="fill:#CCCC;" d="M280,368.95c0-20.1,5-39.4,14.4-56.6c-13.3-7.5-23.1-12.4-27.2-14.4c-1.3-0.6-2-1.9-2-3.3v-79
				c9.9-6.6,16.5-17.9,16.5-30.7v-81.9c0-40.7-33-73.8-73.8-73.8h-8.8h-8.8c-40.7,0-73.8,33-73.8,73.8v81.9
				c0,12.8,6.6,24.1,16.5,30.7v79c0,1.4-0.8,2.7-2,3.3c-11.2,5.5-65.9,33.1-116.6,74.8c-9.2,7.5-14.4,18.8-14.4,30.7v56.1h199.1
				h123.3c-2.7-2.2-5.2-4.6-7.7-7.1C292.3,430.15,280,400.45,280,368.95z"/>
		</g>
		<g>
			<path style="fill:#CCCC;" d="M462.3,304.85c-17.1-17.1-39.9-26.5-64.1-26.5s-47,9.4-64.1,26.5s-26.5,39.9-26.5,64.1s9.4,47,26.5,64.1
				s39.9,26.5,64.1,26.5s47-9.4,64.1-26.5s26.5-39.9,26.5-64.1C488.9,344.75,479.4,321.95,462.3,304.85z M460.7,331.85h-22.3
				c-2.5-10.1-6-19.9-10.5-29.2C441.5,308.75,453,318.95,460.7,331.85z M393.4,296.45c3.4-0.2,6.9-0.2,10.5,0.1
				c7,11,12.3,22.8,15.8,35.3h-42.9C380.6,319.35,386.2,307.45,393.4,296.45z M328.1,387.85c-1.7-6.2-2.5-12.5-2.5-18.9
				c0-6.5,0.9-12.9,2.5-19.1h26.5c-0.9,6.6-1.3,13.3-1.3,20c0,6,0.4,12,1.1,18H328.1z M335.8,405.85h21.9c2.5,10,5.9,19.8,10.4,29.1
				C354.6,428.85,343.3,418.65,335.8,405.85z M358.2,331.85h-22.3c7.8-13.1,19.5-23.4,33.4-29.5
				C364.5,311.75,360.8,321.65,358.2,331.85z M402.6,441.45c-3.6,0.2-7,0.2-10.5-0.1c-7-11-12.3-22.9-15.8-35.4h42.9
				C415.5,418.45,409.9,430.45,402.6,441.45z M423.2,387.85h-50.7c-0.8-5.9-1.2-12-1.2-18c0-6.7,0.5-13.4,1.5-20h50.6
				c0.8,6,1.2,12.1,1.2,18.1C424.7,374.65,424.2,381.35,423.2,387.85z M426.7,435.75c4.8-9.5,8.6-19.6,11.2-29.9h22.8
				C452.8,419.25,440.9,429.65,426.7,435.75z M441.4,387.85c0.9-6.6,1.3-13.3,1.3-19.9c0-6-0.4-12.1-1.1-18.1h26.7
				c1.7,6.2,2.5,12.6,2.5,19.1c0,6.4-0.8,12.8-2.5,18.9H441.4z"/>
		</g>
	</g>
</g>
<g>
</g>
<g>
</g>
<g>
</g>
<g>
</g>
<g>
</g>
<g>
</g>
<g>
</g>
<g>
</g>
<g>
</g>
<g>
</g>
<g>
</g>
<g>
</g>
<g>
</g>
<g>
</g>
<g>
</g>
</svg>
